<?xml version="1.0" encoding="utf-8"?>
<!-- Generator: Adobe Illustrator 24.1.3, SVG Export Plug-In . SVG Version: 6.00 Build 0)  -->
<svg version="1.1" id="Calque_1" xmlns="http://www.w3.org/2000/svg" xmlns:xlink="http://www.w3.org/1999/xlink" x="0px" y="0px"
	 viewBox="0 0 250 58.8" style="enable-background:new 0 0 250 58.8;" xml:space="preserve">
<style type="text/css">
	.st0{fill:#213461;}
	.st1{fill:#00A689;}
	.st2{fill:#CCCCCC;}
</style>
<g>
	<path class="st0" d="M44,16.5L24.9,5.4c-0.9-0.5-2-0.5-2.9,0l-19,11c-0.9,0.5-1.4,1.4-1.4,2.5V41c0,1,0.6,2,1.4,2.5l19.1,10.9
		c0.9,0.5,1.9,0.5,2.8,0l19.1-11c0.9-0.5,1.4-1.4,1.4-2.5V19C45.4,18,44.9,17.1,44,16.5z M43,39.7c0,0.9-0.5,1.7-1.3,2.2l-17,9.7
		c-0.8,0.4-1.7,0.4-2.5,0l-17-9.7C4.5,41.5,4,40.7,4,39.7V20.1c0-0.9,0.5-1.7,1.3-2.2l17-9.8c0.8-0.4,1.8-0.4,2.5,0l17,10
		c0.8,0.4,1.2,1.3,1.2,2.2V39.7z"/>
	<polygon class="st1" points="19.1,23 23.3,10.4 27.9,22.9 41.1,23 30.6,31.1 34.6,43.8 23.6,36.4 12.9,44.1 16.5,31.3 5.9,23.4 	
		"/>
</g>
<g>
	<path class="st0" d="M94.5,16.5L75.4,5.4c-0.9-0.5-2-0.5-2.8,0l-19.1,11c-0.9,0.5-1.4,1.4-1.4,2.5V41c0,1,0.5,2,1.4,2.5l19.1,10.9
		c0.9,0.5,1.9,0.5,2.8,0l19.1-10.9c0.9-0.5,1.4-1.4,1.4-2.5V19C95.9,18,95.4,17.1,94.5,16.5z M93.5,39.7c0,0.9-0.5,1.7-1.3,2.2
		l-17,9.7c-0.8,0.4-1.7,0.4-2.5,0l-17-9.7c-0.8-0.5-1.3-1.3-1.3-2.2V20.1c0-0.9,0.5-1.7,1.3-2.2l17-9.8c0.8-0.4,1.8-0.4,2.5,0l17,10
		c0.8,0.5,1.2,1.3,1.2,2.2v19.4H93.5z"/>
	<polygon class="st1" points="69.6,23 73.8,10.4 78.3,22.9 91.6,23 81.1,31.1 85.1,43.8 74.2,36.4 63.3,44.1 67,31.3 56.4,23.4 	"/>
</g>
<g>
	<path class="st0" d="M145,16.5L125.9,5.4c-0.9-0.5-2-0.5-2.8,0l-19.1,11c-0.9,0.5-1.4,1.4-1.4,2.5V41c0,1,0.6,2,1.4,2.5l19.1,10.9
		c0.9,0.5,1.9,0.5,2.8,0l19.1-11c0.9-0.5,1.4-1.4,1.4-2.5V19C146.4,18,145.9,17.1,145,16.5z M144,39.7c0,0.9-0.5,1.7-1.3,2.2
		l-17,9.7c-0.8,0.4-1.7,0.4-2.5,0l-17-9.7c-0.8-0.5-1.3-1.3-1.3-2.2V20.1c0-0.9,0.5-1.7,1.3-2.2l17-9.8c0.8-0.4,1.8-0.4,2.5,0l17,10
		c0.8,0.5,1.2,1.3,1.2,2.2v19.4H144z"/>
	<polygon class="st1" points="120.1,23 124.3,10.4 128.9,22.9 142.1,23 131.6,31.1 135.6,43.8 124.7,36.4 113.8,44.1 117.5,31.3 
		106.9,23.4 	"/>
</g>
<g>
	<path class="st0" d="M195.5,16.5L176.4,5.4c-0.9-0.5-2-0.5-2.9,0l-19.1,11c-0.9,0.5-1.4,1.4-1.4,2.5V41c0,1,0.6,2,1.4,2.5
		l19.1,10.9c0.9,0.5,1.9,0.5,2.8,0l19.1-10.9c0.9-0.5,1.4-1.4,1.4-2.5V19C196.9,18,196.4,17.1,195.5,16.5z M194.5,39.7
		c0,0.9-0.5,1.7-1.3,2.2l-17,9.7c-0.8,0.4-1.7,0.4-2.5,0l-17-9.7c-0.8-0.5-1.3-1.3-1.3-2.2V20.1c0-0.9,0.5-1.7,1.3-2.2l17-9.8
		c0.8-0.4,1.8-0.4,2.5,0l17,10c0.8,0.5,1.2,1.3,1.2,2.2L194.5,39.7L194.5,39.7z"/>
	<polygon class="st2" points="170.6,23 174.8,10.4 179.4,22.9 192.6,23 182.1,31.1 186.1,43.8 175.1,36.4 164.4,44.1 168,31.3 
		157.4,23.4 	"/>
</g>
<g>
	<path class="st0" d="M246,16.5L226.9,5.4c-0.9-0.5-2-0.5-2.9,0l-19.1,11c-0.9,0.5-1.4,1.4-1.4,2.5V41c0,1,0.6,2,1.4,2.5L224,54.4
		c0.9,0.5,1.9,0.5,2.8,0l19.2-11c0.9-0.5,1.4-1.4,1.4-2.5V19C247.4,18,246.9,17.1,246,16.5z M245,39.7c0,0.9-0.5,1.7-1.3,2.2
		l-17,9.7c-0.8,0.4-1.7,0.4-2.5,0l-17-9.7c-0.8-0.5-1.3-1.3-1.3-2.2V20.1c0-0.9,0.5-1.7,1.3-2.2l17-9.8c0.8-0.4,1.8-0.4,2.5,0l17,10
		c0.8,0.5,1.2,1.3,1.2,2.2L245,39.7L245,39.7z"/>
	<polygon class="st2" points="221.1,23 225.3,10.4 229.9,22.9 243.1,23 232.6,31.1 236.6,43.8 225.6,36.4 214.9,44.1 218.5,31.3 
		207.9,23.4 	"/>
</g>
</svg>
