<?xml version="1.0" encoding="utf-8"?>
<!-- Generator: Adobe Illustrator 24.1.3, SVG Export Plug-In . SVG Version: 6.00 Build 0)  -->
<svg version="1.1" id="Calque_1" xmlns="http://www.w3.org/2000/svg" xmlns:xlink="http://www.w3.org/1999/xlink" x="0px" y="0px"
	 viewBox="0 0 250 58.81" style="enable-background:new 0 0 250 58.81;" xml:space="preserve">
<style type="text/css">
	.st0{fill:url(#SVGID_1_);}
	.st1{fill:url(#SVGID_2_);}
	.st2{fill:#00A689;}
	.st3{fill:#213462;}
	.st4{fill:#FFFFFF;}
	.st5{fill:none;stroke:#00A689;stroke-width:5;stroke-linecap:square;stroke-linejoin:bevel;stroke-miterlimit:10;}
	.st6{fill:none;stroke:#213462;stroke-width:5;stroke-miterlimit:10;}
	.st7{fill:#213461;}
	.st8{fill:url(#SVGID_3_);}
</style>
<g>
	<path class="st7" d="M44.03,16.55L24.92,5.36c-0.88-0.51-1.97-0.52-2.85-0.01L2.98,16.41c-0.87,0.51-1.41,1.44-1.41,2.45v22.12
		c0,1.02,0.55,1.96,1.43,2.46l19.1,10.89c0.87,0.5,1.94,0.5,2.81,0L44,43.43c0.88-0.5,1.43-1.44,1.43-2.46V18.99
		C45.43,17.99,44.89,17.06,44.03,16.55z M43,39.74c0,0.9-0.48,1.74-1.27,2.19l-16.99,9.69c-0.77,0.44-1.72,0.44-2.5,0L5.26,41.93
		c-0.79-0.45-1.27-1.28-1.27-2.19V20.07c0-0.9,0.48-1.73,1.26-2.18l16.98-9.83c0.78-0.45,1.75-0.45,2.53,0.01l17,9.95
		C42.53,18.47,43,19.3,43,20.19V39.74z"/>
	<polygon class="st2" points="19.13,23 23.34,10.4 27.85,22.89 41.12,23 30.64,31.15 34.64,43.81 23.65,36.36 12.85,44.07 
		16.54,31.32 5.86,23.43 	"/>
</g>
<g>
	<path class="st7" d="M94.52,16.55L75.42,5.36c-0.88-0.51-1.97-0.52-2.85-0.01L53.48,16.41c-0.87,0.51-1.41,1.44-1.41,2.45v22.12
		c0,1.02,0.55,1.96,1.43,2.46l19.1,10.89c0.87,0.5,1.94,0.5,2.81,0l19.1-10.9c0.88-0.5,1.43-1.44,1.43-2.46V18.99
		C95.93,17.99,95.39,17.06,94.52,16.55z M93.5,39.74c0,0.9-0.48,1.74-1.27,2.19l-16.99,9.69c-0.77,0.44-1.72,0.44-2.5,0l-16.99-9.69
		c-0.79-0.45-1.27-1.28-1.27-2.19V20.07c0-0.9,0.48-1.73,1.26-2.18l16.98-9.83c0.78-0.45,1.75-0.45,2.53,0.01l17,9.95
		c0.77,0.45,1.25,1.28,1.25,2.17V39.74z"/>
	<polygon class="st2" points="69.63,23 73.84,10.4 78.35,22.89 91.62,23 81.14,31.15 85.14,43.81 74.15,36.36 63.35,44.07 
		67.04,31.32 56.36,23.43 	"/>
</g>
<g>
	<path class="st7" d="M145.02,16.55L125.92,5.36c-0.88-0.51-1.97-0.52-2.85-0.01l-19.09,11.05c-0.87,0.51-1.41,1.44-1.41,2.45v22.12
		c0,1.02,0.55,1.96,1.43,2.46l19.1,10.89c0.87,0.5,1.94,0.5,2.81,0l19.1-10.9c0.88-0.5,1.43-1.44,1.43-2.46V18.99
		C146.42,17.99,145.89,17.06,145.02,16.55z M144,39.74c0,0.9-0.48,1.74-1.27,2.19l-16.99,9.69c-0.77,0.44-1.72,0.44-2.5,0
		l-16.99-9.69c-0.79-0.45-1.27-1.28-1.27-2.19V20.07c0-0.9,0.48-1.73,1.26-2.18l16.98-9.83c0.78-0.45,1.75-0.45,2.53,0.01l17,9.95
		c0.77,0.45,1.25,1.28,1.25,2.17V39.74z"/>
	<polygon class="st2" points="120.13,23 124.34,10.4 128.85,22.89 142.12,23 131.64,31.15 135.64,43.81 124.65,36.36 113.85,44.07 
		117.54,31.32 106.86,23.43 	"/>
</g>
<g>
	<path class="st7" d="M195.52,16.55L176.41,5.36c-0.88-0.51-1.97-0.52-2.85-0.01l-19.09,11.05c-0.87,0.51-1.41,1.44-1.41,2.45v22.12
		c0,1.02,0.55,1.96,1.43,2.46l19.1,10.89c0.87,0.5,1.94,0.5,2.81,0l19.1-10.9c0.88-0.5,1.43-1.44,1.43-2.46V18.99
		C196.92,17.99,196.39,17.06,195.52,16.55z M194.5,39.74c0,0.9-0.48,1.74-1.27,2.19l-16.99,9.69c-0.77,0.44-1.72,0.44-2.5,0
		l-16.99-9.69c-0.79-0.45-1.27-1.28-1.27-2.19V20.07c0-0.9,0.48-1.73,1.26-2.18l16.98-9.83c0.78-0.45,1.75-0.45,2.53,0.01l17,9.95
		c0.77,0.45,1.25,1.28,1.25,2.17V39.74z"/>
	<polygon class="st2" points="170.63,23 174.84,10.4 179.35,22.89 192.62,23 182.14,31.15 186.14,43.81 175.15,36.36 164.35,44.07 
		168.04,31.32 157.36,23.43 	"/>
</g>
<g>
	<path class="st7" d="M246.02,16.55L226.91,5.36c-0.88-0.51-1.97-0.52-2.85-0.01l-19.09,11.05c-0.87,0.51-1.41,1.44-1.41,2.45v22.12
		c0,1.02,0.55,1.96,1.43,2.46l19.1,10.89c0.87,0.5,1.94,0.5,2.81,0l19.1-10.9c0.88-0.5,1.43-1.44,1.43-2.46V18.99
		C247.42,17.99,246.89,17.06,246.02,16.55z M245,39.74c0,0.9-0.48,1.74-1.27,2.19l-16.99,9.69c-0.77,0.44-1.72,0.44-2.5,0
		l-16.99-9.69c-0.79-0.45-1.27-1.28-1.27-2.19V20.07c0-0.9,0.48-1.73,1.26-2.18l16.98-9.83c0.78-0.45,1.75-0.45,2.53,0.01l17,9.95
		c0.77,0.45,1.25,1.28,1.25,2.17V39.74z"/>
	<polygon class="st2" points="221.13,23 225.34,10.4 229.85,22.89 243.12,23 232.64,31.15 236.64,43.81 225.65,36.36 214.85,44.07 
		218.54,31.32 207.86,23.43 	"/>
</g>
</svg>
