<svg version="1.2" xmlns="http://www.w3.org/2000/svg" viewBox="0 0 250 59" width="250" height="59">
	<title>star-3-svg</title>
	<style>
		.s0 { fill: #213461 } 
		.s1 { fill: #00a689 } 
		.s2 { fill: #cccccc } 
	</style>
	<g id="Layer">
		<path id="Layer" fill-rule="evenodd" class="s0" d="m45.4 19v21.9c0 1.1-0.5 2-1.4 2.5l-19.1 11c-0.9 0.5-1.9 0.5-2.8 0l-19.1-10.9c-0.8-0.5-1.4-1.5-1.4-2.5v-22.1c0-1.1 0.5-2 1.4-2.5l19-11c0.9-0.5 2-0.5 2.9 0l19.1 11.1c0.9 0.6 1.4 1.5 1.4 2.5zm-2.4 1.3c0-0.9-0.4-1.8-1.2-2.2l-17-10c-0.7-0.4-1.7-0.4-2.5 0l-17 9.8c-0.8 0.5-1.3 1.3-1.3 2.2v19.6c0 1 0.5 1.8 1.2 2.2l17 9.7c0.8 0.4 1.7 0.4 2.5 0l17-9.7c0.8-0.5 1.3-1.3 1.3-2.2z"/>
		<path id="Layer" class="s1" d="m19.1 23l4.2-12.6 4.6 12.5 13.2 0.1-10.5 8.1 4 12.7-11-7.4-10.7 7.7 3.6-12.8-10.6-7.9z"/>
	</g>
	<g id="Layer">
		<path id="Layer" fill-rule="evenodd" class="s0" d="m95.9 19v22c0 1.1-0.5 2-1.4 2.5l-19.1 10.9c-0.9 0.5-1.9 0.5-2.8 0l-19.1-10.9c-0.9-0.5-1.4-1.5-1.4-2.5v-22.1c0-1.1 0.5-2 1.4-2.5l19.1-11c0.8-0.5 1.9-0.5 2.8 0l19.1 11.1c0.9 0.6 1.4 1.5 1.4 2.5zm-2.5 20.7v-19.4c0-0.9-0.4-1.7-1.2-2.2l-17-10c-0.7-0.4-1.7-0.4-2.5 0l-17 9.8c-0.8 0.5-1.3 1.3-1.3 2.2v19.6c0 0.9 0.5 1.7 1.3 2.2l17 9.7c0.8 0.4 1.7 0.4 2.5 0l17-9.7c0.8-0.5 1.3-1.3 1.3-2.2z"/>
		<path id="Layer" class="s1" d="m69.6 23l4.2-12.6 4.5 12.5 13.3 0.1-10.5 8.1 4 12.7-10.9-7.4-10.9 7.7 3.7-12.8-10.6-7.9z"/>
	</g>
	<g id="Layer">
		<path id="Layer" fill-rule="evenodd" class="s0" d="m146.4 19v21.9c0 1.1-0.5 2-1.4 2.5l-19.1 11c-0.9 0.5-1.9 0.5-2.8 0l-19.1-10.9c-0.8-0.5-1.4-1.5-1.4-2.5v-22.1c0-1.1 0.5-2 1.4-2.5l19.1-11c0.8-0.5 1.9-0.5 2.8 0l19.1 11.1c0.9 0.6 1.4 1.5 1.4 2.5zm-2.5 20.7v-19.4c0-0.9-0.4-1.7-1.2-2.2l-17-10c-0.7-0.4-1.7-0.4-2.5 0l-17 9.8c-0.8 0.5-1.3 1.3-1.3 2.2v19.6c0 0.9 0.5 1.7 1.3 2.2l17 9.7c0.8 0.4 1.7 0.4 2.5 0l17-9.7c0.8-0.5 1.3-1.3 1.3-2.2z"/>
		<path id="Layer" class="s1" d="m120.1 23l4.2-12.6 4.6 12.5 13.2 0.1-10.5 8.1 4 12.7-10.9-7.4-10.9 7.7 3.7-12.8-10.6-7.9z"/>
	</g>
	<g id="Layer">
		<path id="Layer" fill-rule="evenodd" class="s0" d="m196.8 19v22c0 1.1-0.5 2-1.4 2.5l-19.1 10.9c-0.9 0.5-1.9 0.5-2.8 0l-19.1-10.9c-0.8-0.5-1.4-1.5-1.4-2.5v-22.1c0-1.1 0.5-2 1.4-2.5l19.1-11c0.9-0.5 2-0.5 2.9 0l19.1 11.1c0.9 0.6 1.4 1.5 1.3 2.5zm-2.4 1.3c0-0.9-0.4-1.7-1.2-2.2l-17-10c-0.7-0.4-1.7-0.4-2.5 0l-17 9.8c-0.8 0.5-1.3 1.3-1.3 2.2v19.6c0 0.9 0.5 1.7 1.3 2.2l17 9.7c0.8 0.4 1.7 0.4 2.5 0l17-9.7c0.8-0.5 1.3-1.3 1.3-2.2z"/>
		<path id="Layer" class="s2" d="m170.6 23l4.2-12.6 4.6 12.5 13.2 0.1-10.5 8.1 4 12.7-11-7.4-10.7 7.7 3.6-12.8-10.6-7.9z"/>
	</g>
	<g id="Layer">
		<path id="Layer" fill-rule="evenodd" class="s0" d="m247.4 19v21.9c0 1.1-0.5 2-1.4 2.5l-19.2 11c-0.9 0.5-1.9 0.5-2.8 0l-19.1-10.9c-0.8-0.5-1.4-1.5-1.4-2.5v-22.1c0-1.1 0.5-2 1.4-2.5l19.1-11c0.9-0.5 2-0.5 2.9 0l19.1 11.1c0.9 0.6 1.4 1.5 1.4 2.5zm-2.5 1.3c0-0.9-0.4-1.7-1.2-2.2l-17-10c-0.7-0.4-1.7-0.4-2.5 0l-17 9.8c-0.8 0.5-1.3 1.3-1.3 2.2v19.6c0 0.9 0.5 1.7 1.3 2.2l17 9.7c0.8 0.4 1.7 0.4 2.5 0l17-9.7c0.8-0.5 1.3-1.3 1.3-2.2z"/>
		<path id="Layer" class="s2" d="m221.1 23l4.2-12.6 4.6 12.5 13.2 0.1-10.5 8.1 4 12.7-11-7.4-10.7 7.7 3.6-12.8-10.6-7.9z"/>
	</g>
</svg>